<svg width="48" height="48" viewBox="0 0 48 48" fill="none" xmlns="http://www.w3.org/2000/svg">
<g id="File_dock_add">
<path id="Vector 55" d="M18 26L30 26" stroke="white" stroke-width="4" stroke-linecap="round"/>
<path id="Vector 59" d="M18 18L26 18" stroke="white" stroke-width="4" stroke-linecap="round"/>
<path id="Vector 58" d="M18 34L26 34" stroke="white" stroke-width="4" stroke-linecap="round"/>
<path id="Rectangle 4012" d="M38 26V36C38 38.8284 38 40.2426 37.1213 41.1213C36.2426 42 34.8284 42 32 42H16C13.1716 42 11.7574 42 10.8787 41.1213C10 40.2426 10 38.8284 10 36V12C10 9.17157 10 7.75736 10.8787 6.87868C11.7574 6 13.1716 6 16 6H22" stroke="white" stroke-width="4"/>
<path id="Vector 52" d="M36 6L36 18" stroke="white" stroke-width="4" stroke-linecap="round"/>
<path id="Vector 53" d="M42 12L30 12" stroke="white" stroke-width="4" stroke-linecap="round"/>
</g>
</svg>
